<svg xmlns="http://www.w3.org/2000/svg" xmlns:xlink="http://www.w3.org/1999/xlink" width="500" zoomAndPan="magnify" viewBox="0 0 375 374.999991" height="500" preserveAspectRatio="xMidYMid meet" version="1.0"><defs><g/></defs><rect x="-37.5" width="450" fill="#ffffff" y="-37.499999" height="449.999989" fill-opacity="1"/><rect x="-37.5" width="450" fill="#3b474e" y="-37.499999" height="449.999989" fill-opacity="1"/><g fill="#c99a58" fill-opacity="1"><g transform="translate(116.701168, 210.650026)"><g><path d="M 21.515625 -18.875 L 8.203125 -14 L 21.515625 -9.15625 L 21.515625 -4.15625 L 2.484375 -11.40625 L 2.484375 -16.59375 L 21.515625 -23.84375 Z M 21.515625 -18.875 "/></g></g></g><g fill="#c99a58" fill-opacity="1"><g transform="translate(140.658789, 210.650026)"><g/></g></g><g fill="#c99a58" fill-opacity="1"><g transform="translate(151.977659, 210.650026)"><g><path d="M 12.515625 0.484375 C 10.304688 0.484375 8.164062 0.1875 6.09375 -0.40625 C 4.03125 -1.007812 2.375 -1.796875 1.125 -2.765625 L 3.3125 -7.640625 C 4.519531 -6.753906 5.945312 -6.046875 7.59375 -5.515625 C 9.25 -4.984375 10.90625 -4.71875 12.5625 -4.71875 C 14.394531 -4.71875 15.75 -4.988281 16.625 -5.53125 C 17.507812 -6.082031 17.953125 -6.8125 17.953125 -7.71875 C 17.953125 -8.382812 17.691406 -8.9375 17.171875 -9.375 C 16.660156 -9.820312 15.992188 -10.175781 15.171875 -10.4375 C 14.359375 -10.707031 13.257812 -11 11.875 -11.3125 C 9.75 -11.820312 8.003906 -12.328125 6.640625 -12.828125 C 5.273438 -13.335938 4.109375 -14.148438 3.140625 -15.265625 C 2.171875 -16.390625 1.6875 -17.890625 1.6875 -19.765625 C 1.6875 -21.390625 2.125 -22.859375 3 -24.171875 C 3.875 -25.492188 5.195312 -26.539062 6.96875 -27.3125 C 8.75 -28.09375 10.921875 -28.484375 13.484375 -28.484375 C 15.265625 -28.484375 17.007812 -28.269531 18.71875 -27.84375 C 20.425781 -27.414062 21.921875 -26.800781 23.203125 -26 L 21.203125 -21.078125 C 18.609375 -22.546875 16.019531 -23.28125 13.4375 -23.28125 C 11.625 -23.28125 10.285156 -22.984375 9.421875 -22.390625 C 8.554688 -21.804688 8.125 -21.035156 8.125 -20.078125 C 8.125 -19.117188 8.625 -18.40625 9.625 -17.9375 C 10.625 -17.46875 12.148438 -17.007812 14.203125 -16.5625 C 16.335938 -16.050781 18.082031 -15.539062 19.4375 -15.03125 C 20.800781 -14.53125 21.96875 -13.734375 22.9375 -12.640625 C 23.914062 -11.546875 24.40625 -10.066406 24.40625 -8.203125 C 24.40625 -6.597656 23.957031 -5.132812 23.0625 -3.8125 C 22.164062 -2.5 20.820312 -1.453125 19.03125 -0.671875 C 17.25 0.0976562 15.078125 0.484375 12.515625 0.484375 Z M 12.515625 0.484375 "/></g></g></g><g fill="#c99a58" fill-opacity="1"><g transform="translate(177.495121, 210.650026)"><g><path d="M 30.234375 -28 L 18.125 0 L 11.71875 0 L -0.359375 -28 L 6.640625 -28 L 15.15625 -8 L 23.796875 -28 Z M 30.234375 -28 "/></g></g></g><g fill="#c99a58" fill-opacity="1"><g transform="translate(207.332155, 210.650026)"><g/></g></g><g fill="#c99a58" fill-opacity="1"><g transform="translate(218.651025, 210.650026)"><g><path d="M 11.875 -33.6875 L 17.4375 -33.6875 L 4.234375 4 L -1.3125 4 Z M 11.875 -33.6875 "/></g></g></g><g fill="#c99a58" fill-opacity="1"><g transform="translate(234.329464, 210.650026)"><g><path d="M 21.515625 -16.59375 L 21.515625 -11.40625 L 2.484375 -4.15625 L 2.484375 -9.15625 L 15.796875 -14 L 2.484375 -18.875 L 2.484375 -23.84375 Z M 21.515625 -16.59375 "/></g></g></g><g fill="#62989c" fill-opacity="1"><g transform="translate(101.629017, 163.575017)"><g><path d="M -13 -17.328125 C -12.476562 -18.117188 -11.988281 -18.65625 -11.53125 -18.9375 C -11.082031 -19.226562 -10.644531 -19.457031 -10.21875 -19.625 C -9.976562 -19.738281 -9.789062 -19.835938 -9.65625 -19.921875 C -9.519531 -20.003906 -9.414062 -20.101562 -9.34375 -20.21875 C -9.238281 -20.375 -9.25 -20.546875 -9.375 -20.734375 C -9.507812 -20.921875 -9.734375 -21.148438 -10.046875 -21.421875 L -9.6875 -21.96875 C -9.425781 -21.769531 -9.117188 -21.535156 -8.765625 -21.265625 C -8.410156 -21.003906 -7.929688 -20.664062 -7.328125 -20.25 C -6.734375 -19.84375 -5.941406 -19.3125 -4.953125 -18.65625 L -5.3125 -18.109375 C -6.09375 -18.566406 -6.925781 -18.878906 -7.8125 -19.046875 C -8.695312 -19.222656 -9.535156 -19.1875 -10.328125 -18.9375 C -11.128906 -18.6875 -11.820312 -18.117188 -12.40625 -17.234375 C -12.957031 -16.398438 -13.160156 -15.546875 -13.015625 -14.671875 C -12.867188 -13.796875 -12.390625 -13.085938 -11.578125 -12.546875 C -10.859375 -12.066406 -10.140625 -11.847656 -9.421875 -11.890625 C -8.710938 -11.929688 -7.960938 -12.128906 -7.171875 -12.484375 C -6.378906 -12.835938 -5.523438 -13.222656 -4.609375 -13.640625 C -3.566406 -14.117188 -2.585938 -14.515625 -1.671875 -14.828125 C -0.753906 -15.140625 0.125 -15.285156 0.96875 -15.265625 C 1.8125 -15.242188 2.660156 -14.953125 3.515625 -14.390625 C 4.535156 -13.710938 5.222656 -12.921875 5.578125 -12.015625 C 5.929688 -11.117188 6.023438 -10.179688 5.859375 -9.203125 C 5.691406 -8.234375 5.304688 -7.296875 4.703125 -6.390625 C 4.140625 -5.546875 3.601562 -4.941406 3.09375 -4.578125 C 2.582031 -4.210938 2.109375 -3.925781 1.671875 -3.71875 C 1.222656 -3.519531 0.9375 -3.320312 0.8125 -3.125 C 0.707031 -2.96875 0.71875 -2.796875 0.84375 -2.609375 C 0.96875 -2.429688 1.191406 -2.203125 1.515625 -1.921875 L 1.15625 -1.375 C 0.84375 -1.625 0.460938 -1.898438 0.015625 -2.203125 C -0.429688 -2.515625 -1.015625 -2.914062 -1.734375 -3.40625 C -2.453125 -3.894531 -3.363281 -4.503906 -4.46875 -5.234375 L -4.109375 -5.765625 C -3.117188 -5.210938 -2.113281 -4.804688 -1.09375 -4.546875 C -0.0820312 -4.296875 0.867188 -4.3125 1.765625 -4.59375 C 2.671875 -4.875 3.457031 -5.519531 4.125 -6.53125 C 4.46875 -7.050781 4.6875 -7.613281 4.78125 -8.21875 C 4.875 -8.820312 4.785156 -9.425781 4.515625 -10.03125 C 4.253906 -10.644531 3.753906 -11.195312 3.015625 -11.6875 C 2.359375 -12.125 1.6875 -12.34375 1 -12.34375 C 0.320312 -12.351562 -0.40625 -12.222656 -1.1875 -11.953125 C -1.96875 -11.679688 -2.828125 -11.320312 -3.765625 -10.875 C -4.710938 -10.425781 -5.632812 -10.035156 -6.53125 -9.703125 C -7.4375 -9.367188 -8.328125 -9.210938 -9.203125 -9.234375 C -10.085938 -9.265625 -10.972656 -9.578125 -11.859375 -10.171875 C -12.785156 -10.785156 -13.414062 -11.5 -13.75 -12.3125 C -14.082031 -13.132812 -14.164062 -13.984375 -14 -14.859375 C -13.84375 -15.734375 -13.507812 -16.554688 -13 -17.328125 Z M -13 -17.328125 "/></g></g></g><g fill="#62989c" fill-opacity="1"><g transform="translate(109.453652, 151.902949)"><g><path d="M -11.28125 -16.59375 L -7.640625 -13.515625 L -4.9375 -16.734375 L -4.515625 -16.375 L -7.21875 -13.15625 L 1.171875 -6.0625 C 1.847656 -5.488281 2.425781 -5.210938 2.90625 -5.234375 C 3.382812 -5.253906 3.804688 -5.476562 4.171875 -5.90625 C 4.535156 -6.34375 4.675781 -6.867188 4.59375 -7.484375 C 4.507812 -8.097656 4.148438 -8.875 3.515625 -9.8125 L 3.984375 -10.15625 C 4.691406 -9.300781 5.15625 -8.414062 5.375 -7.5 C 5.59375 -6.59375 5.328125 -5.703125 4.578125 -4.828125 C 4.160156 -4.328125 3.757812 -3.96875 3.375 -3.75 C 2.988281 -3.53125 2.570312 -3.398438 2.125 -3.359375 C 1.53125 -3.316406 0.953125 -3.429688 0.390625 -3.703125 C -0.171875 -3.972656 -0.835938 -4.4375 -1.609375 -5.09375 L -8.859375 -11.21875 L -10.625 -9.125 L -11.046875 -9.484375 L -9.28125 -11.578125 L -12.609375 -14.390625 C -12.316406 -14.753906 -12.050781 -15.117188 -11.8125 -15.484375 C -11.582031 -15.859375 -11.40625 -16.226562 -11.28125 -16.59375 Z M -11.28125 -16.59375 "/></g></g></g><g fill="#62989c" fill-opacity="1"><g transform="translate(115.014886, 145.030722)"><g><path d="M -4.6875 -16.21875 C -3.46875 -17.363281 -2.171875 -17.882812 -0.796875 -17.78125 C 0.578125 -17.6875 2 -16.863281 3.46875 -15.3125 L -3.828125 -8.4375 L -4.21875 -8.8125 L 1.09375 -13.828125 C 0.488281 -14.535156 -0.144531 -15.109375 -0.8125 -15.546875 C -1.488281 -15.984375 -2.132812 -16.234375 -2.75 -16.296875 C -3.375 -16.367188 -3.921875 -16.1875 -4.390625 -15.75 C -5.023438 -15.15625 -5.289062 -14.304688 -5.1875 -13.203125 C -5.082031 -12.109375 -4.421875 -10.832031 -3.203125 -9.375 L -3.078125 -9.34375 C -2.921875 -9.101562 -2.726562 -8.851562 -2.5 -8.59375 C -2.28125 -8.34375 -2.050781 -8.09375 -1.8125 -7.84375 C -0.925781 -6.894531 -0.015625 -6.226562 0.921875 -5.84375 C 1.859375 -5.457031 2.734375 -5.320312 3.546875 -5.4375 C 4.367188 -5.550781 5.039062 -5.851562 5.5625 -6.34375 C 5.976562 -6.726562 6.3125 -7.160156 6.5625 -7.640625 C 6.8125 -8.128906 6.953125 -8.671875 6.984375 -9.265625 C 7.015625 -9.867188 6.90625 -10.535156 6.65625 -11.265625 L 7.21875 -11.5 C 7.5 -10.894531 7.664062 -10.21875 7.71875 -9.46875 C 7.78125 -8.71875 7.675781 -7.960938 7.40625 -7.203125 C 7.132812 -6.441406 6.648438 -5.738281 5.953125 -5.09375 C 4.960938 -4.15625 3.898438 -3.578125 2.765625 -3.359375 C 1.628906 -3.140625 0.492188 -3.253906 -0.640625 -3.703125 C -1.773438 -4.160156 -2.832031 -4.914062 -3.8125 -5.96875 C -4.957031 -7.175781 -5.75 -8.394531 -6.1875 -9.625 C -6.625 -10.851562 -6.71875 -12.035156 -6.46875 -13.171875 C -6.21875 -14.316406 -5.625 -15.332031 -4.6875 -16.21875 Z M -4.6875 -16.21875 "/></g></g></g><g fill="#62989c" fill-opacity="1"><g transform="translate(124.228647, 136.085185)"><g><path d="M -4.234375 -15.265625 L 5.796875 -1.015625 C 6.265625 -0.347656 6.773438 -0.0390625 7.328125 -0.09375 C 7.890625 -0.15625 8.519531 -0.429688 9.21875 -0.921875 L 9.5625 -0.4375 C 9.195312 -0.21875 8.703125 0.0859375 8.078125 0.484375 C 7.460938 0.890625 6.816406 1.332031 6.140625 1.8125 C 5.660156 2.144531 5.191406 2.488281 4.734375 2.84375 C 4.273438 3.207031 3.929688 3.488281 3.703125 3.6875 L 3.359375 3.203125 C 3.921875 2.804688 4.242188 2.421875 4.328125 2.046875 C 4.410156 1.679688 4.257812 1.21875 3.875 0.65625 L -4.375 -11.015625 C -4.863281 -11.710938 -5.347656 -12.140625 -5.828125 -12.296875 C -6.304688 -12.453125 -6.882812 -12.289062 -7.5625 -11.8125 L -7.90625 -12.296875 C -7.382812 -12.597656 -6.890625 -12.914062 -6.421875 -13.25 C -5.972656 -13.5625 -5.5625 -13.890625 -5.1875 -14.234375 C -4.820312 -14.578125 -4.503906 -14.921875 -4.234375 -15.265625 Z M -0.578125 -17.953125 C 0.234375 -18.523438 1.117188 -18.820312 2.078125 -18.84375 C 3.046875 -18.863281 4.019531 -18.582031 5 -18 C 5.976562 -17.414062 6.910156 -16.5 7.796875 -15.25 C 8.390625 -14.414062 8.867188 -13.519531 9.234375 -12.5625 C 9.597656 -11.613281 9.800781 -10.660156 9.84375 -9.703125 C 9.882812 -8.742188 9.707031 -7.832031 9.3125 -6.96875 C 8.914062 -6.101562 8.242188 -5.335938 7.296875 -4.671875 C 6.566406 -4.160156 5.816406 -3.882812 5.046875 -3.84375 C 4.273438 -3.800781 3.625 -3.957031 3.09375 -4.3125 L 3.125 -4.796875 C 3.632812 -4.503906 4.195312 -4.359375 4.8125 -4.359375 C 5.4375 -4.359375 6.054688 -4.578125 6.671875 -5.015625 C 7.546875 -5.617188 8.03125 -6.359375 8.125 -7.234375 C 8.21875 -8.117188 8.039062 -9.082031 7.59375 -10.125 C 7.15625 -11.164062 6.550781 -12.234375 5.78125 -13.328125 C 4.90625 -14.566406 4.085938 -15.507812 3.328125 -16.15625 C 2.566406 -16.800781 1.847656 -17.175781 1.171875 -17.28125 C 0.503906 -17.394531 -0.117188 -17.242188 -0.703125 -16.828125 C -1.460938 -16.296875 -1.929688 -15.492188 -2.109375 -14.421875 C -2.285156 -13.359375 -2.007812 -12.140625 -1.28125 -10.765625 L -1.796875 -10.890625 C -2.554688 -12.316406 -2.8125 -13.660156 -2.5625 -14.921875 C -2.3125 -16.191406 -1.648438 -17.203125 -0.578125 -17.953125 Z M -0.578125 -17.953125 "/></g></g></g><g fill="#62989c" fill-opacity="1"><g transform="translate(136.293675, 127.419667)"><g><path d="M -5.140625 -22.25 L -0.421875 -12.734375 C -0.554688 -14.109375 -0.34375 -15.210938 0.21875 -16.046875 C 0.789062 -16.878906 1.507812 -17.507812 2.375 -17.9375 C 3.019531 -18.257812 3.597656 -18.441406 4.109375 -18.484375 C 4.628906 -18.523438 5.101562 -18.46875 5.53125 -18.3125 C 6.03125 -18.125 6.472656 -17.8125 6.859375 -17.375 C 7.253906 -16.9375 7.664062 -16.289062 8.09375 -15.4375 L 11.46875 -8.640625 C 11.820312 -7.929688 12.207031 -7.519531 12.625 -7.40625 C 13.039062 -7.300781 13.597656 -7.421875 14.296875 -7.765625 L 14.5625 -7.234375 C 14.269531 -7.109375 13.820312 -6.910156 13.21875 -6.640625 C 12.613281 -6.367188 12.03125 -6.09375 11.46875 -5.8125 C 10.90625 -5.53125 10.359375 -5.242188 9.828125 -4.953125 C 9.304688 -4.671875 8.914062 -4.453125 8.65625 -4.296875 L 8.390625 -4.828125 C 9.015625 -5.140625 9.390625 -5.484375 9.515625 -5.859375 C 9.640625 -6.242188 9.523438 -6.789062 9.171875 -7.5 L 5.515625 -14.859375 C 5.253906 -15.378906 4.972656 -15.835938 4.671875 -16.234375 C 4.378906 -16.628906 4.007812 -16.890625 3.5625 -17.015625 C 3.125 -17.140625 2.601562 -17.050781 2 -16.75 C 1.3125 -16.40625 0.796875 -15.90625 0.453125 -15.25 C 0.117188 -14.59375 -0.0234375 -13.835938 0.015625 -12.984375 C 0.0546875 -12.140625 0.300781 -11.269531 0.75 -10.375 L 3.5625 -4.703125 C 3.914062 -3.992188 4.28125 -3.570312 4.65625 -3.4375 C 5.03125 -3.3125 5.523438 -3.40625 6.140625 -3.71875 L 6.40625 -3.1875 C 6.125 -3.070312 5.707031 -2.890625 5.15625 -2.640625 C 4.613281 -2.398438 4.0625 -2.140625 3.5 -1.859375 C 2.945312 -1.578125 2.378906 -1.28125 1.796875 -0.96875 C 1.210938 -0.65625 0.78125 -0.414062 0.5 -0.25 L 0.234375 -0.78125 C 0.929688 -1.125 1.363281 -1.492188 1.53125 -1.890625 C 1.707031 -2.296875 1.617188 -2.851562 1.265625 -3.5625 L -5.9375 -18.046875 C -6.3125 -18.816406 -6.722656 -19.316406 -7.171875 -19.546875 C -7.628906 -19.785156 -8.234375 -19.71875 -8.984375 -19.34375 L -9.25 -19.875 C -8.675781 -20.082031 -8.132812 -20.3125 -7.625 -20.5625 C -7.125 -20.8125 -6.664062 -21.078125 -6.25 -21.359375 C -5.832031 -21.648438 -5.460938 -21.945312 -5.140625 -22.25 Z M -5.140625 -22.25 "/></g></g></g><g fill="#62989c" fill-opacity="1"><g transform="translate(149.860454, 120.661571)"><g><path d="M 4.671875 -1.328125 C 3.929688 -1.085938 3.242188 -1.019531 2.609375 -1.125 C 1.984375 -1.226562 1.445312 -1.484375 1 -1.890625 C 0.5625 -2.296875 0.234375 -2.828125 0.015625 -3.484375 C -0.242188 -4.273438 -0.269531 -4.984375 -0.0625 -5.609375 C 0.132812 -6.234375 0.46875 -6.796875 0.9375 -7.296875 C 1.414062 -7.796875 1.9375 -8.253906 2.5 -8.671875 C 3.0625 -9.085938 3.597656 -9.484375 4.109375 -9.859375 C 4.628906 -10.242188 5.03125 -10.617188 5.3125 -10.984375 C 5.601562 -11.359375 5.679688 -11.75 5.546875 -12.15625 L 5 -13.84375 C 4.75 -14.59375 4.445312 -15.128906 4.09375 -15.453125 C 3.738281 -15.773438 3.347656 -15.9375 2.921875 -15.9375 C 2.492188 -15.945312 2.046875 -15.875 1.578125 -15.71875 C 1.140625 -15.570312 0.679688 -15.351562 0.203125 -15.0625 C -0.265625 -14.769531 -0.585938 -14.378906 -0.765625 -13.890625 C -0.390625 -13.929688 -0.03125 -13.847656 0.3125 -13.640625 C 0.65625 -13.441406 0.90625 -13.113281 1.0625 -12.65625 C 1.207031 -12.21875 1.175781 -11.816406 0.96875 -11.453125 C 0.769531 -11.085938 0.441406 -10.832031 -0.015625 -10.6875 C -0.523438 -10.519531 -0.957031 -10.5625 -1.3125 -10.8125 C -1.664062 -11.0625 -1.910156 -11.394531 -2.046875 -11.8125 C -2.203125 -12.269531 -2.207031 -12.679688 -2.0625 -13.046875 C -1.925781 -13.410156 -1.722656 -13.78125 -1.453125 -14.15625 C -1.128906 -14.59375 -0.675781 -15.019531 -0.09375 -15.4375 C 0.488281 -15.863281 1.195312 -16.210938 2.03125 -16.484375 C 2.757812 -16.722656 3.414062 -16.84375 4 -16.84375 C 4.582031 -16.84375 5.09375 -16.734375 5.53125 -16.515625 C 6.15625 -16.242188 6.640625 -15.820312 6.984375 -15.25 C 7.328125 -14.675781 7.640625 -13.957031 7.921875 -13.09375 L 10.390625 -5.609375 C 10.546875 -5.160156 10.722656 -4.859375 10.921875 -4.703125 C 11.117188 -4.554688 11.363281 -4.53125 11.65625 -4.625 C 11.851562 -4.6875 12.023438 -4.789062 12.171875 -4.9375 C 12.328125 -5.09375 12.5 -5.3125 12.6875 -5.59375 L 13.140625 -5.21875 C 12.835938 -4.8125 12.546875 -4.457031 12.265625 -4.15625 C 11.992188 -3.851562 11.570312 -3.609375 11 -3.421875 C 10.476562 -3.253906 10.015625 -3.203125 9.609375 -3.265625 C 9.210938 -3.335938 8.875 -3.515625 8.59375 -3.796875 C 8.3125 -4.085938 8.078125 -4.503906 7.890625 -5.046875 C 7.671875 -4.085938 7.289062 -3.296875 6.75 -2.671875 C 6.207031 -2.054688 5.515625 -1.609375 4.671875 -1.328125 Z M 5.28125 -2.734375 C 5.875 -2.929688 6.367188 -3.285156 6.765625 -3.796875 C 7.171875 -4.304688 7.46875 -4.96875 7.65625 -5.78125 L 5.90625 -11.0625 C 5.789062 -10.6875 5.5625 -10.328125 5.21875 -9.984375 C 4.875 -9.640625 4.492188 -9.28125 4.078125 -8.90625 C 3.660156 -8.539062 3.273438 -8.148438 2.921875 -7.734375 C 2.578125 -7.316406 2.335938 -6.832031 2.203125 -6.28125 C 2.066406 -5.726562 2.113281 -5.097656 2.34375 -4.390625 C 2.582031 -3.671875 2.960938 -3.160156 3.484375 -2.859375 C 4.015625 -2.554688 4.613281 -2.515625 5.28125 -2.734375 Z M 5.28125 -2.734375 "/></g></g></g><g fill="#62989c" fill-opacity="1"><g transform="translate(161.764517, 116.510249)"><g><path d="M 7.578125 -16.59375 C 8.285156 -16.71875 8.890625 -16.726562 9.390625 -16.625 C 9.898438 -16.519531 10.34375 -16.328125 10.71875 -16.046875 C 11.144531 -15.734375 11.484375 -15.3125 11.734375 -14.78125 C 11.984375 -14.25 12.191406 -13.507812 12.359375 -12.5625 L 13.6875 -5.09375 C 13.820312 -4.320312 14.070312 -3.820312 14.4375 -3.59375 C 14.8125 -3.363281 15.382812 -3.316406 16.15625 -3.453125 L 16.265625 -2.875 C 15.941406 -2.84375 15.453125 -2.78125 14.796875 -2.6875 C 14.140625 -2.601562 13.503906 -2.503906 12.890625 -2.390625 C 12.273438 -2.285156 11.675781 -2.164062 11.09375 -2.03125 C 10.519531 -1.90625 10.082031 -1.804688 9.78125 -1.734375 L 9.671875 -2.3125 C 10.335938 -2.425781 10.785156 -2.648438 11.015625 -2.984375 C 11.242188 -3.328125 11.289062 -3.882812 11.15625 -4.65625 L 9.71875 -12.734375 C 9.613281 -13.304688 9.472656 -13.828125 9.296875 -14.296875 C 9.128906 -14.765625 8.851562 -15.117188 8.46875 -15.359375 C 8.09375 -15.609375 7.566406 -15.671875 6.890625 -15.546875 C 6.109375 -15.410156 5.46875 -15.066406 4.96875 -14.515625 C 4.46875 -13.960938 4.117188 -13.269531 3.921875 -12.4375 C 3.734375 -11.613281 3.722656 -10.722656 3.890625 -9.765625 L 5 -3.5625 C 5.132812 -2.789062 5.363281 -2.285156 5.6875 -2.046875 C 6.019531 -1.804688 6.519531 -1.75 7.1875 -1.875 L 7.296875 -1.296875 C 6.992188 -1.265625 6.546875 -1.207031 5.953125 -1.125 C 5.367188 -1.050781 4.769531 -0.957031 4.15625 -0.84375 C 3.539062 -0.738281 2.910156 -0.613281 2.265625 -0.46875 C 1.617188 -0.332031 1.132812 -0.222656 0.8125 -0.140625 L 0.703125 -0.71875 C 1.460938 -0.851562 1.984375 -1.09375 2.265625 -1.4375 C 2.546875 -1.78125 2.617188 -2.335938 2.484375 -3.109375 L 0.921875 -11.859375 C 0.773438 -12.691406 0.519531 -13.28125 0.15625 -13.625 C -0.207031 -13.976562 -0.800781 -14.082031 -1.625 -13.9375 L -1.734375 -14.53125 C -1.128906 -14.582031 -0.550781 -14.660156 0 -14.765625 C 0.550781 -14.859375 1.066406 -14.984375 1.546875 -15.140625 C 2.023438 -15.296875 2.457031 -15.46875 2.84375 -15.65625 L 3.4375 -12.375 C 3.6875 -13.71875 4.195312 -14.710938 4.96875 -15.359375 C 5.75 -16.003906 6.617188 -16.414062 7.578125 -16.59375 Z M 7.578125 -16.59375 "/></g></g></g><g fill="#62989c" fill-opacity="1"><g transform="translate(177.224774, 113.951797)"><g><path d="M 2.78125 -21.90625 C 3.257812 -21.9375 3.6875 -21.78125 4.0625 -21.4375 C 4.445312 -21.101562 4.65625 -20.691406 4.6875 -20.203125 C 4.71875 -19.710938 4.5625 -19.273438 4.21875 -18.890625 C 3.882812 -18.515625 3.476562 -18.3125 3 -18.28125 C 2.507812 -18.257812 2.070312 -18.414062 1.6875 -18.75 C 1.3125 -19.082031 1.109375 -19.492188 1.078125 -19.984375 C 1.046875 -20.472656 1.195312 -20.910156 1.53125 -21.296875 C 1.875 -21.679688 2.289062 -21.882812 2.78125 -21.90625 Z M 4.640625 -15.21875 L 5.359375 -2.96875 C 5.410156 -2.175781 5.609375 -1.644531 5.953125 -1.375 C 6.304688 -1.113281 6.867188 -1.003906 7.640625 -1.046875 L 7.671875 -0.453125 C 7.347656 -0.453125 6.859375 -0.445312 6.203125 -0.4375 C 5.554688 -0.425781 4.90625 -0.398438 4.25 -0.359375 C 3.613281 -0.316406 2.960938 -0.265625 2.296875 -0.203125 C 1.640625 -0.140625 1.148438 -0.0859375 0.828125 -0.046875 L 0.796875 -0.640625 C 1.566406 -0.679688 2.109375 -0.851562 2.421875 -1.15625 C 2.742188 -1.46875 2.878906 -2.019531 2.828125 -2.8125 L 2.3125 -11.671875 C 2.257812 -12.523438 2.066406 -13.144531 1.734375 -13.53125 C 1.410156 -13.914062 0.832031 -14.082031 0 -14.03125 L -0.03125 -14.625 C 0.570312 -14.613281 1.15625 -14.625 1.71875 -14.65625 C 2.269531 -14.6875 2.789062 -14.75 3.28125 -14.84375 C 3.78125 -14.9375 4.234375 -15.0625 4.640625 -15.21875 Z M 4.640625 -15.21875 "/></g></g></g><g fill="#62989c" fill-opacity="1"><g transform="translate(184.39276, 113.312561)"><g><path d="M 8.390625 -14.640625 C 10.054688 -14.566406 11.332031 -14 12.21875 -12.9375 C 13.113281 -11.882812 13.515625 -10.289062 13.421875 -8.15625 L 3.40625 -8.609375 L 3.40625 -9.15625 L 10.703125 -8.828125 C 10.785156 -9.753906 10.75 -10.609375 10.59375 -11.390625 C 10.445312 -12.179688 10.175781 -12.820312 9.78125 -13.3125 C 9.394531 -13.8125 8.882812 -14.078125 8.25 -14.109375 C 7.382812 -14.148438 6.597656 -13.75 5.890625 -12.90625 C 5.179688 -12.0625 4.71875 -10.695312 4.5 -8.8125 L 4.578125 -8.703125 C 4.523438 -8.421875 4.484375 -8.109375 4.453125 -7.765625 C 4.421875 -7.429688 4.394531 -7.097656 4.375 -6.765625 C 4.320312 -5.472656 4.484375 -4.351562 4.859375 -3.40625 C 5.234375 -2.457031 5.742188 -1.726562 6.390625 -1.21875 C 7.035156 -0.71875 7.710938 -0.445312 8.421875 -0.40625 C 8.984375 -0.382812 9.523438 -0.445312 10.046875 -0.59375 C 10.566406 -0.75 11.054688 -1.023438 11.515625 -1.421875 C 11.972656 -1.828125 12.375 -2.367188 12.71875 -3.046875 L 13.28125 -2.796875 C 13.039062 -2.179688 12.671875 -1.59375 12.171875 -1.03125 C 11.671875 -0.46875 11.050781 -0.0195312 10.3125 0.3125 C 9.582031 0.644531 8.742188 0.789062 7.796875 0.75 C 6.441406 0.6875 5.289062 0.320312 4.34375 -0.34375 C 3.394531 -1.007812 2.6875 -1.90625 2.21875 -3.03125 C 1.757812 -4.164062 1.5625 -5.453125 1.625 -6.890625 C 1.707031 -8.546875 2.035156 -9.960938 2.609375 -11.140625 C 3.191406 -12.316406 3.976562 -13.207031 4.96875 -13.8125 C 5.96875 -14.425781 7.109375 -14.703125 8.390625 -14.640625 Z M 8.390625 -14.640625 "/></g></g></g><g fill="#62989c" fill-opacity="1"><g transform="translate(197.652554, 114.047618)"><g/></g></g><g fill="#62989c" fill-opacity="1"><g transform="translate(203.491007, 114.513013)"><g><path d="M 22.625 -14.78125 L 22.484375 -14.21875 C 22.109375 -14.238281 21.675781 -14.128906 21.1875 -13.890625 C 20.707031 -13.648438 20.203125 -13.15625 19.671875 -12.40625 L 8.828125 2.5 C 8.785156 2.488281 8.75 2.476562 8.71875 2.46875 C 8.6875 2.457031 8.648438 2.445312 8.609375 2.4375 C 8.566406 2.425781 8.523438 2.414062 8.484375 2.40625 C 8.453125 2.394531 8.421875 2.382812 8.390625 2.375 L 6.265625 -16.65625 C 6.179688 -17.425781 5.992188 -17.96875 5.703125 -18.28125 C 5.421875 -18.601562 5.132812 -18.8125 4.84375 -18.90625 L 4.984375 -19.46875 C 5.347656 -19.351562 5.800781 -19.210938 6.34375 -19.046875 C 6.882812 -18.878906 7.40625 -18.726562 7.90625 -18.59375 C 8.613281 -18.40625 9.28125 -18.238281 9.90625 -18.09375 C 10.539062 -17.945312 11.050781 -17.832031 11.4375 -17.75 L 11.296875 -17.1875 C 10.671875 -17.34375 10.179688 -17.394531 9.828125 -17.34375 C 9.472656 -17.300781 9.238281 -17.125 9.125 -16.8125 C 9.007812 -16.507812 8.992188 -16.015625 9.078125 -15.328125 L 10.5625 -0.453125 L 10 -0.109375 L 18.078125 -11.234375 C 18.722656 -12.109375 19.109375 -12.828125 19.234375 -13.390625 C 19.367188 -13.953125 19.265625 -14.40625 18.921875 -14.75 C 18.585938 -15.101562 18.039062 -15.382812 17.28125 -15.59375 L 17.421875 -16.15625 C 17.941406 -16 18.472656 -15.835938 19.015625 -15.671875 C 19.554688 -15.503906 20.070312 -15.359375 20.5625 -15.234375 C 21.03125 -15.109375 21.421875 -15.015625 21.734375 -14.953125 C 22.054688 -14.890625 22.351562 -14.832031 22.625 -14.78125 Z M 22.625 -14.78125 "/></g></g></g><g fill="#62989c" fill-opacity="1"><g transform="translate(219.439343, 118.968803)"><g><path d="M 11.828125 -18.640625 C 12.285156 -18.460938 12.613281 -18.132812 12.8125 -17.65625 C 13.007812 -17.1875 13.019531 -16.726562 12.84375 -16.28125 C 12.65625 -15.820312 12.328125 -15.492188 11.859375 -15.296875 C 11.398438 -15.097656 10.941406 -15.085938 10.484375 -15.265625 C 10.035156 -15.453125 9.707031 -15.78125 9.5 -16.25 C 9.300781 -16.71875 9.296875 -17.179688 9.484375 -17.640625 C 9.660156 -18.085938 9.984375 -18.410156 10.453125 -18.609375 C 10.921875 -18.816406 11.378906 -18.828125 11.828125 -18.640625 Z M 10.6875 -11.796875 L 6.125 -0.390625 C 5.832031 0.347656 5.785156 0.910156 5.984375 1.296875 C 6.179688 1.679688 6.640625 2.019531 7.359375 2.3125 L 7.140625 2.859375 C 6.847656 2.710938 6.40625 2.507812 5.8125 2.25 C 5.21875 1.988281 4.613281 1.734375 4 1.484375 C 3.40625 1.242188 2.796875 1.007812 2.171875 0.78125 C 1.546875 0.5625 1.078125 0.40625 0.765625 0.3125 L 0.984375 -0.234375 C 1.703125 0.046875 2.269531 0.117188 2.6875 -0.015625 C 3.101562 -0.160156 3.457031 -0.601562 3.75 -1.34375 L 7.046875 -9.578125 C 7.359375 -10.367188 7.445312 -11.007812 7.3125 -11.5 C 7.1875 -12 6.738281 -12.398438 5.96875 -12.703125 L 6.1875 -13.25 C 6.738281 -12.976562 7.273438 -12.738281 7.796875 -12.53125 C 8.304688 -12.320312 8.804688 -12.15625 9.296875 -12.03125 C 9.785156 -11.90625 10.25 -11.828125 10.6875 -11.796875 Z M 10.6875 -11.796875 "/></g></g></g><g fill="#62989c" fill-opacity="1"><g transform="translate(226.21282, 121.463209)"><g><path d="M 19 -6.53125 L 18.75 -6.03125 C 18.40625 -6.164062 18.035156 -6.175781 17.640625 -6.0625 C 17.242188 -5.957031 16.757812 -5.648438 16.1875 -5.140625 L 6.40625 3.515625 C 6.320312 3.472656 6.25 3.4375 6.1875 3.40625 C 6.125 3.375 6.050781 3.335938 5.96875 3.296875 L 7.171875 -10.265625 C 7.253906 -11.054688 7.203125 -11.59375 7.015625 -11.875 C 6.828125 -12.15625 6.640625 -12.34375 6.453125 -12.4375 L 6.71875 -12.96875 C 7.050781 -12.769531 7.390625 -12.5625 7.734375 -12.34375 C 8.085938 -12.132812 8.472656 -11.925781 8.890625 -11.71875 C 9.410156 -11.445312 9.960938 -11.164062 10.546875 -10.875 C 11.140625 -10.582031 11.691406 -10.320312 12.203125 -10.09375 L 11.9375 -9.5625 C 11.519531 -9.78125 11.128906 -9.945312 10.765625 -10.0625 C 10.410156 -10.175781 10.117188 -10.117188 9.890625 -9.890625 C 9.660156 -9.671875 9.5 -9.175781 9.40625 -8.40625 L 8.46875 1.015625 L 8.25 1.0625 L 15.046875 -4.953125 C 15.554688 -5.390625 15.875 -5.78125 16 -6.125 C 16.132812 -6.476562 16.097656 -6.816406 15.890625 -7.140625 C 15.691406 -7.460938 15.300781 -7.796875 14.71875 -8.140625 L 14.96875 -8.640625 C 15.257812 -8.460938 15.515625 -8.3125 15.734375 -8.1875 C 15.953125 -8.070312 16.160156 -7.957031 16.359375 -7.84375 C 16.566406 -7.726562 16.800781 -7.601562 17.0625 -7.46875 C 17.4375 -7.269531 17.78125 -7.09375 18.09375 -6.9375 C 18.414062 -6.78125 18.71875 -6.644531 19 -6.53125 Z M 19 -6.53125 "/></g></g></g><g fill="#62989c" fill-opacity="1"><g transform="translate(237.312541, 127.166378)"><g><path d="M 14.953125 -7.84375 C 16.316406 -6.882812 17.085938 -5.71875 17.265625 -4.34375 C 17.453125 -2.96875 16.929688 -1.410156 15.703125 0.328125 L 7.5 -5.4375 L 7.796875 -5.890625 L 13.78125 -1.6875 C 14.34375 -2.414062 14.773438 -3.15625 15.078125 -3.90625 C 15.378906 -4.65625 15.492188 -5.34375 15.421875 -5.96875 C 15.359375 -6.59375 15.066406 -7.085938 14.546875 -7.453125 C 13.835938 -7.953125 12.957031 -8.039062 11.90625 -7.71875 C 10.851562 -7.394531 9.726562 -6.492188 8.53125 -5.015625 L 8.53125 -4.875 C 8.34375 -4.675781 8.144531 -4.441406 7.9375 -4.171875 C 7.726562 -3.898438 7.523438 -3.625 7.328125 -3.34375 C 6.585938 -2.28125 6.117188 -1.25 5.921875 -0.25 C 5.722656 0.738281 5.757812 1.617188 6.03125 2.390625 C 6.3125 3.171875 6.742188 3.769531 7.328125 4.1875 C 7.785156 4.507812 8.273438 4.742188 8.796875 4.890625 C 9.316406 5.035156 9.875 5.066406 10.46875 4.984375 C 11.070312 4.898438 11.703125 4.660156 12.359375 4.265625 L 12.703125 4.78125 C 12.171875 5.175781 11.539062 5.472656 10.8125 5.671875 C 10.09375 5.878906 9.332031 5.925781 8.53125 5.8125 C 7.738281 5.695312 6.957031 5.363281 6.1875 4.8125 C 5.070312 4.03125 4.289062 3.101562 3.84375 2.03125 C 3.40625 0.96875 3.296875 -0.160156 3.515625 -1.359375 C 3.734375 -2.566406 4.253906 -3.757812 5.078125 -4.9375 C 6.035156 -6.300781 7.070312 -7.320312 8.1875 -8 C 9.3125 -8.675781 10.457031 -9.003906 11.625 -8.984375 C 12.789062 -8.960938 13.898438 -8.582031 14.953125 -7.84375 Z M 14.953125 -7.84375 "/></g></g></g><g fill="#62989c" fill-opacity="1"><g transform="translate(247.97285, 134.634779)"><g><path d="M 17.234375 -4.625 C 17.609375 -4.28125 17.867188 -3.898438 18.015625 -3.484375 C 18.171875 -3.066406 18.21875 -2.660156 18.15625 -2.265625 C 18.09375 -1.867188 17.921875 -1.515625 17.640625 -1.203125 C 17.316406 -0.859375 16.925781 -0.65625 16.46875 -0.59375 C 16.007812 -0.53125 15.597656 -0.660156 15.234375 -0.984375 C 14.941406 -1.253906 14.769531 -1.582031 14.71875 -1.96875 C 14.664062 -2.363281 14.796875 -2.738281 15.109375 -3.09375 C 15.359375 -3.363281 15.640625 -3.523438 15.953125 -3.578125 C 16.273438 -3.628906 16.578125 -3.625 16.859375 -3.5625 C 16.890625 -3.800781 16.804688 -4.007812 16.609375 -4.1875 C 16.171875 -4.582031 15.648438 -4.8125 15.046875 -4.875 C 14.453125 -4.945312 13.84375 -4.894531 13.21875 -4.71875 C 12.601562 -4.550781 12.019531 -4.300781 11.46875 -3.96875 C 10.914062 -3.644531 10.460938 -3.285156 10.109375 -2.890625 L 6.0625 1.5625 C 5.4375 2.238281 5.21875 2.875 5.40625 3.46875 C 5.601562 4.070312 6.046875 4.6875 6.734375 5.3125 L 6.328125 5.75 C 6.015625 5.445312 5.570312 5.015625 5 4.453125 C 4.425781 3.898438 3.816406 3.328125 3.171875 2.734375 C 2.691406 2.296875 2.207031 1.875 1.71875 1.46875 C 1.226562 1.070312 0.859375 0.769531 0.609375 0.5625 L 1.015625 0.125 C 1.585938 0.632812 2.09375 0.894531 2.53125 0.90625 C 2.96875 0.914062 3.453125 0.628906 3.984375 0.046875 L 9.953125 -6.515625 C 10.523438 -7.148438 10.832031 -7.71875 10.875 -8.21875 C 10.925781 -8.726562 10.644531 -9.257812 10.03125 -9.8125 L 10.4375 -10.25 C 10.851562 -9.800781 11.269531 -9.390625 11.6875 -9.015625 C 12.09375 -8.640625 12.5 -8.3125 12.90625 -8.03125 C 13.320312 -7.75 13.726562 -7.515625 14.125 -7.328125 L 11.75 -4.703125 C 12.269531 -4.960938 12.859375 -5.164062 13.515625 -5.3125 C 14.179688 -5.46875 14.84375 -5.5 15.5 -5.40625 C 16.164062 -5.320312 16.742188 -5.0625 17.234375 -4.625 Z M 17.234375 -4.625 "/></g></g></g><g fill="#62989c" fill-opacity="1"><g transform="translate(256.413052, 142.056229)"><g><path d="M 16.484375 -3.765625 C 17.265625 -2.847656 17.757812 -1.847656 17.96875 -0.765625 C 18.1875 0.316406 18.050781 1.441406 17.5625 2.609375 C 17.070312 3.785156 16.132812 4.957031 14.75 6.125 C 13.363281 7.300781 12.050781 8.035156 10.8125 8.328125 C 9.582031 8.617188 8.457031 8.5625 7.4375 8.15625 C 6.414062 7.757812 5.515625 7.101562 4.734375 6.1875 C 3.960938 5.269531 3.460938 4.269531 3.234375 3.1875 C 3.003906 2.113281 3.128906 0.992188 3.609375 -0.171875 C 4.097656 -1.347656 5.035156 -2.523438 6.421875 -3.703125 C 7.804688 -4.867188 9.117188 -5.597656 10.359375 -5.890625 C 11.597656 -6.179688 12.734375 -6.128906 13.765625 -5.734375 C 14.804688 -5.335938 15.710938 -4.679688 16.484375 -3.765625 Z M 16.046875 -3.390625 C 15.347656 -4.210938 14.347656 -4.523438 13.046875 -4.328125 C 11.753906 -4.140625 10.140625 -3.226562 8.203125 -1.59375 C 6.265625 0.0507812 5.097656 1.492188 4.703125 2.734375 C 4.304688 3.972656 4.457031 5.003906 5.15625 5.828125 C 5.84375 6.648438 6.832031 6.96875 8.125 6.78125 C 9.414062 6.59375 11.03125 5.675781 12.96875 4.03125 C 14.90625 2.394531 16.070312 0.957031 16.46875 -0.28125 C 16.875 -1.53125 16.734375 -2.566406 16.046875 -3.390625 Z M 16.046875 -3.390625 "/></g></g></g><g fill="#62989c" fill-opacity="1"><g transform="translate(265.556228, 152.848061)"><g><path d="M 15.828125 -3.171875 C 16.234375 -2.546875 16.472656 -1.941406 16.546875 -1.359375 C 16.617188 -0.773438 16.640625 -0.320312 16.609375 0 C 16.515625 0.8125 17.003906 0.941406 18.078125 0.390625 L 18.4375 0.9375 C 17.96875 1.195312 17.421875 1.515625 16.796875 1.890625 C 16.179688 2.273438 15.351562 2.800781 14.3125 3.46875 L 13.953125 2.921875 C 14.484375 2.453125 14.953125 1.921875 15.359375 1.328125 C 15.765625 0.734375 16.003906 0.0976562 16.078125 -0.578125 C 16.148438 -1.253906 15.953125 -1.953125 15.484375 -2.671875 C 15.128906 -3.222656 14.675781 -3.582031 14.125 -3.75 C 13.582031 -3.925781 13.007812 -3.820312 12.40625 -3.4375 C 11.925781 -3.132812 11.609375 -2.726562 11.453125 -2.21875 C 11.304688 -1.707031 11.226562 -1.125 11.21875 -0.46875 C 11.21875 0.175781 11.222656 0.882812 11.234375 1.65625 C 11.234375 2.5 11.191406 3.296875 11.109375 4.046875 C 11.023438 4.796875 10.835938 5.46875 10.546875 6.0625 C 10.265625 6.664062 9.796875 7.175781 9.140625 7.59375 C 8.410156 8.0625 7.675781 8.265625 6.9375 8.203125 C 6.207031 8.140625 5.515625 7.882812 4.859375 7.4375 C 4.210938 6.988281 3.65625 6.40625 3.1875 5.6875 C 2.96875 5.332031 2.78125 4.976562 2.625 4.625 C 2.476562 4.28125 2.367188 3.929688 2.296875 3.578125 C 2.285156 3.359375 2.28125 3.128906 2.28125 2.890625 C 2.28125 2.660156 2.289062 2.421875 2.3125 2.171875 C 2.351562 1.929688 2.265625 1.789062 2.046875 1.75 C 1.828125 1.71875 1.488281 1.796875 1.03125 1.984375 L 0.6875 1.453125 C 1.21875 1.148438 1.851562 0.769531 2.59375 0.3125 C 3.332031 -0.132812 4.304688 -0.75 5.515625 -1.53125 L 5.875 -0.984375 C 5.050781 -0.304688 4.375 0.347656 3.84375 0.984375 C 3.3125 1.628906 3 2.289062 2.90625 2.96875 C 2.820312 3.65625 3.035156 4.398438 3.546875 5.203125 C 3.753906 5.515625 4.035156 5.785156 4.390625 6.015625 C 4.742188 6.253906 5.160156 6.378906 5.640625 6.390625 C 6.117188 6.398438 6.632812 6.226562 7.1875 5.875 C 7.882812 5.425781 8.289062 4.800781 8.40625 4 C 8.53125 3.195312 8.585938 2.253906 8.578125 1.171875 C 8.566406 0.347656 8.585938 -0.425781 8.640625 -1.15625 C 8.691406 -1.894531 8.84375 -2.566406 9.09375 -3.171875 C 9.351562 -3.773438 9.804688 -4.285156 10.453125 -4.703125 C 11.171875 -5.171875 11.863281 -5.390625 12.53125 -5.359375 C 13.195312 -5.328125 13.8125 -5.109375 14.375 -4.703125 C 14.9375 -4.304688 15.421875 -3.796875 15.828125 -3.171875 Z M 15.828125 -3.171875 "/></g></g></g><g fill="#c99a58" fill-opacity="1"><g transform="translate(93.234973, 231.701437)"><g><path d="M 16.25 -4.171875 L 9.765625 -0.78125 L 13.4375 6.265625 L 12.515625 6.75 L 8.84375 -0.296875 L 1.765625 3.390625 L 1.1875 2.265625 L 16.609375 -5.78125 L 21.421875 3.46875 L 20.484375 3.953125 Z M 16.25 -4.171875 "/></g></g></g><g fill="#c99a58" fill-opacity="1"><g transform="translate(100.315362, 245.058565)"><g><path d="M 16.640625 2.140625 L 6.734375 9.3125 L 6.359375 8.78125 C 6.242188 8.625 6.257812 8.46875 6.40625 8.3125 L 7.828125 7.171875 C 6.921875 7.117188 6.070312 6.914062 5.28125 6.5625 C 4.5 6.21875 3.84375 5.679688 3.3125 4.953125 C 2.914062 4.390625 2.65625 3.84375 2.53125 3.3125 C 2.414062 2.78125 2.421875 2.253906 2.546875 1.734375 C 2.671875 1.222656 2.910156 0.734375 3.265625 0.265625 C 3.617188 -0.203125 4.082031 -0.644531 4.65625 -1.0625 L 11 -5.65625 L 11.703125 -4.6875 L 5.359375 -0.09375 C 4.429688 0.570312 3.859375 1.304688 3.640625 2.109375 C 3.421875 2.921875 3.625 3.757812 4.25 4.625 C 4.71875 5.269531 5.316406 5.753906 6.046875 6.078125 C 6.785156 6.398438 7.601562 6.570312 8.5 6.59375 L 15.953125 1.203125 Z M 16.640625 2.140625 "/></g></g></g><g fill="#c99a58" fill-opacity="1"><g transform="translate(108.922875, 256.538892)"><g><path d="M 15.5625 -9.40625 L 2.203125 2.46875 L 1.40625 1.59375 L 14.765625 -10.28125 Z M 15.5625 -9.40625 "/></g></g></g><g fill="#c99a58" fill-opacity="1"><g transform="translate(112.866603, 260.95164)"><g><path d="M 14.984375 -10.28125 L 2.34375 2.34375 L 1.5 1.5 L 14.140625 -11.125 Z M 14.984375 -10.28125 "/></g></g></g><g fill="#c99a58" fill-opacity="1"><g transform="translate(117.136507, 265.288257)"><g><path d="M 6.375 -4.8125 L 10.703125 -1.09375 L 10.046875 -0.328125 L 5.71875 -4.046875 Z M 6.375 -4.8125 "/></g></g></g><g fill="#c99a58" fill-opacity="1"><g transform="translate(124.715345, 271.776481)"><g><path d="M 13.28125 -3.84375 C 13.164062 -3.78125 13.054688 -3.785156 12.953125 -3.859375 C 12.878906 -3.910156 12.8125 -4.015625 12.75 -4.171875 C 12.695312 -4.335938 12.609375 -4.539062 12.484375 -4.78125 C 12.367188 -5.019531 12.195312 -5.28125 11.96875 -5.5625 C 11.75 -5.84375 11.4375 -6.125 11.03125 -6.40625 C 10.664062 -6.664062 10.296875 -6.84375 9.921875 -6.9375 C 9.546875 -7.03125 9.191406 -7.0625 8.859375 -7.03125 C 8.535156 -7.007812 8.234375 -6.921875 7.953125 -6.765625 C 7.679688 -6.617188 7.457031 -6.414062 7.28125 -6.15625 C 7.0625 -5.84375 6.957031 -5.523438 6.96875 -5.203125 C 6.988281 -4.878906 7.078125 -4.554688 7.234375 -4.234375 C 7.390625 -3.910156 7.597656 -3.578125 7.859375 -3.234375 C 8.128906 -2.890625 8.398438 -2.539062 8.671875 -2.1875 C 8.941406 -1.84375 9.195312 -1.488281 9.4375 -1.125 C 9.6875 -0.757812 9.875 -0.390625 10 -0.015625 C 10.125 0.359375 10.171875 0.742188 10.140625 1.140625 C 10.109375 1.535156 9.953125 1.9375 9.671875 2.34375 C 9.367188 2.78125 9.007812 3.128906 8.59375 3.390625 C 8.175781 3.660156 7.71875 3.832031 7.21875 3.90625 C 6.726562 3.976562 6.207031 3.941406 5.65625 3.796875 C 5.113281 3.660156 4.554688 3.394531 3.984375 3 C 3.285156 2.519531 2.753906 1.988281 2.390625 1.40625 C 2.035156 0.820312 1.785156 0.207031 1.640625 -0.4375 L 2.09375 -0.640625 C 2.164062 -0.660156 2.226562 -0.671875 2.28125 -0.671875 C 2.34375 -0.671875 2.410156 -0.640625 2.484375 -0.578125 C 2.578125 -0.523438 2.648438 -0.398438 2.703125 -0.203125 C 2.753906 -0.015625 2.84375 0.210938 2.96875 0.484375 C 3.09375 0.753906 3.269531 1.050781 3.5 1.375 C 3.726562 1.695312 4.066406 2.007812 4.515625 2.3125 C 4.941406 2.613281 5.359375 2.816406 5.765625 2.921875 C 6.171875 3.023438 6.550781 3.050781 6.90625 3 C 7.269531 2.945312 7.597656 2.820312 7.890625 2.625 C 8.191406 2.425781 8.445312 2.175781 8.65625 1.875 C 8.894531 1.53125 9.007812 1.191406 9 0.859375 C 8.988281 0.523438 8.90625 0.191406 8.75 -0.140625 C 8.601562 -0.472656 8.394531 -0.8125 8.125 -1.15625 C 7.863281 -1.5 7.59375 -1.84375 7.3125 -2.1875 C 7.039062 -2.53125 6.78125 -2.882812 6.53125 -3.25 C 6.289062 -3.613281 6.109375 -3.984375 5.984375 -4.359375 C 5.859375 -4.734375 5.804688 -5.113281 5.828125 -5.5 C 5.859375 -5.894531 6.019531 -6.300781 6.3125 -6.71875 C 6.550781 -7.070312 6.863281 -7.359375 7.25 -7.578125 C 7.632812 -7.796875 8.054688 -7.929688 8.515625 -7.984375 C 8.984375 -8.046875 9.472656 -8.007812 9.984375 -7.875 C 10.492188 -7.738281 11.003906 -7.492188 11.515625 -7.140625 C 12.128906 -6.710938 12.613281 -6.242188 12.96875 -5.734375 C 13.320312 -5.234375 13.570312 -4.671875 13.71875 -4.046875 Z M 13.28125 -3.84375 "/></g></g></g><g fill="#c99a58" fill-opacity="1"><g transform="translate(134.056528, 278.120235)"><g><path d="M 4.59375 2.765625 C 3.863281 2.359375 3.410156 1.84375 3.234375 1.21875 C 3.054688 0.59375 3.195312 -0.132812 3.65625 -0.96875 L 7.6875 -8.265625 L 6.140625 -9.125 C 6.054688 -9.164062 6.003906 -9.222656 5.984375 -9.296875 C 5.960938 -9.378906 5.972656 -9.457031 6.015625 -9.53125 L 6.25 -9.9375 L 8.140625 -9.046875 L 10.515625 -12.734375 C 10.566406 -12.796875 10.625 -12.835938 10.6875 -12.859375 C 10.757812 -12.878906 10.835938 -12.867188 10.921875 -12.828125 L 11.40625 -12.5625 L 9.140625 -8.46875 L 12.515625 -6.609375 L 12.09375 -5.84375 L 8.71875 -7.703125 L 4.71875 -0.453125 C 4.550781 -0.160156 4.445312 0.109375 4.40625 0.359375 C 4.375 0.617188 4.382812 0.851562 4.4375 1.0625 C 4.488281 1.269531 4.585938 1.453125 4.734375 1.609375 C 4.878906 1.773438 5.054688 1.914062 5.265625 2.03125 C 5.523438 2.175781 5.765625 2.257812 5.984375 2.28125 C 6.210938 2.3125 6.421875 2.320312 6.609375 2.3125 C 6.796875 2.300781 6.953125 2.28125 7.078125 2.25 C 7.210938 2.226562 7.300781 2.234375 7.34375 2.265625 C 7.40625 2.296875 7.441406 2.359375 7.453125 2.453125 L 7.484375 3.0625 C 7.054688 3.195312 6.578125 3.242188 6.046875 3.203125 C 5.523438 3.160156 5.039062 3.015625 4.59375 2.765625 Z M 4.59375 2.765625 "/></g></g></g><g fill="#c99a58" fill-opacity="1"><g transform="translate(142.20957, 282.676033)"><g><path d="M 10.453125 -2.03125 C 9.359375 -2.4375 8.394531 -2.734375 7.5625 -2.921875 C 6.738281 -3.117188 6.03125 -3.210938 5.4375 -3.203125 C 4.84375 -3.191406 4.351562 -3.078125 3.96875 -2.859375 C 3.59375 -2.640625 3.328125 -2.332031 3.171875 -1.9375 C 3.003906 -1.550781 2.925781 -1.195312 2.9375 -0.875 C 2.945312 -0.550781 3.019531 -0.257812 3.15625 0 C 3.289062 0.269531 3.472656 0.5 3.703125 0.6875 C 3.941406 0.882812 4.210938 1.046875 4.515625 1.171875 C 4.953125 1.359375 5.375 1.484375 5.78125 1.546875 C 6.195312 1.609375 6.59375 1.617188 6.96875 1.578125 C 7.34375 1.546875 7.71875 1.46875 8.09375 1.34375 C 8.46875 1.21875 8.84375 1.078125 9.21875 0.921875 Z M 5.609375 -9.046875 C 6.429688 -9.378906 7.234375 -9.5625 8.015625 -9.59375 C 8.796875 -9.625 9.597656 -9.46875 10.421875 -9.125 C 11.023438 -8.863281 11.515625 -8.539062 11.890625 -8.15625 C 12.265625 -7.78125 12.523438 -7.347656 12.671875 -6.859375 C 12.816406 -6.378906 12.851562 -5.851562 12.78125 -5.28125 C 12.71875 -4.707031 12.554688 -4.109375 12.296875 -3.484375 L 9.21875 3.859375 L 8.796875 3.6875 C 8.566406 3.59375 8.46875 3.425781 8.5 3.1875 L 8.96875 1.671875 C 8.519531 1.847656 8.09375 1.988281 7.6875 2.09375 C 7.28125 2.207031 6.875 2.273438 6.46875 2.296875 C 6.070312 2.328125 5.660156 2.3125 5.234375 2.25 C 4.816406 2.1875 4.375 2.054688 3.90625 1.859375 C 3.53125 1.703125 3.179688 1.488281 2.859375 1.21875 C 2.535156 0.945312 2.28125 0.632812 2.09375 0.28125 C 1.914062 -0.0703125 1.820312 -0.460938 1.8125 -0.890625 C 1.800781 -1.328125 1.898438 -1.804688 2.109375 -2.328125 C 2.304688 -2.796875 2.625 -3.175781 3.0625 -3.46875 C 3.5 -3.769531 4.078125 -3.945312 4.796875 -4 C 5.515625 -4.0625 6.363281 -3.992188 7.34375 -3.796875 C 8.320312 -3.597656 9.457031 -3.25 10.75 -2.75 L 11.25 -3.921875 C 11.6875 -4.960938 11.796875 -5.859375 11.578125 -6.609375 C 11.359375 -7.359375 10.804688 -7.921875 9.921875 -8.296875 C 9.390625 -8.515625 8.898438 -8.628906 8.453125 -8.640625 C 8.003906 -8.648438 7.609375 -8.617188 7.265625 -8.546875 C 6.921875 -8.484375 6.632812 -8.410156 6.40625 -8.328125 C 6.1875 -8.253906 6.019531 -8.238281 5.90625 -8.28125 C 5.820312 -8.320312 5.757812 -8.367188 5.71875 -8.421875 C 5.675781 -8.484375 5.65625 -8.554688 5.65625 -8.640625 Z M 5.609375 -9.046875 "/></g></g></g><g fill="#c99a58" fill-opacity="1"><g transform="translate(154.189484, 287.611103)"><g><path d="M 12.703125 -7.453125 C 12.648438 -7.421875 12.601562 -7.394531 12.5625 -7.375 C 12.519531 -7.363281 12.472656 -7.367188 12.421875 -7.390625 C 12.335938 -7.410156 12.238281 -7.492188 12.125 -7.640625 C 12.019531 -7.785156 11.875 -7.953125 11.6875 -8.140625 C 11.5 -8.328125 11.242188 -8.519531 10.921875 -8.71875 C 10.609375 -8.925781 10.207031 -9.097656 9.71875 -9.234375 C 9.039062 -9.421875 8.40625 -9.46875 7.8125 -9.375 C 7.21875 -9.28125 6.675781 -9.054688 6.1875 -8.703125 C 5.707031 -8.359375 5.28125 -7.890625 4.90625 -7.296875 C 4.539062 -6.710938 4.25 -6.023438 4.03125 -5.234375 C 3.800781 -4.398438 3.691406 -3.632812 3.703125 -2.9375 C 3.722656 -2.25 3.847656 -1.632812 4.078125 -1.09375 C 4.304688 -0.5625 4.640625 -0.113281 5.078125 0.25 C 5.523438 0.625 6.054688 0.894531 6.671875 1.0625 C 7.242188 1.226562 7.738281 1.296875 8.15625 1.265625 C 8.570312 1.234375 8.925781 1.175781 9.21875 1.09375 C 9.519531 1.007812 9.757812 0.914062 9.9375 0.8125 C 10.113281 0.71875 10.25 0.6875 10.34375 0.71875 C 10.445312 0.738281 10.519531 0.800781 10.5625 0.90625 L 10.75 1.359375 C 10.5 1.546875 10.207031 1.703125 9.875 1.828125 C 9.539062 1.960938 9.175781 2.054688 8.78125 2.109375 C 8.394531 2.160156 7.984375 2.171875 7.546875 2.140625 C 7.117188 2.109375 6.6875 2.03125 6.25 1.90625 C 5.5 1.695312 4.851562 1.367188 4.3125 0.921875 C 3.769531 0.484375 3.34375 -0.0546875 3.03125 -0.703125 C 2.726562 -1.347656 2.5625 -2.078125 2.53125 -2.890625 C 2.5 -3.710938 2.613281 -4.601562 2.875 -5.5625 C 3.125 -6.445312 3.46875 -7.226562 3.90625 -7.90625 C 4.351562 -8.582031 4.878906 -9.125 5.484375 -9.53125 C 6.097656 -9.945312 6.773438 -10.210938 7.515625 -10.328125 C 8.253906 -10.441406 9.050781 -10.378906 9.90625 -10.140625 C 10.664062 -9.921875 11.304688 -9.609375 11.828125 -9.203125 C 12.359375 -8.796875 12.785156 -8.320312 13.109375 -7.78125 Z M 12.703125 -7.453125 "/></g></g></g><g fill="#c99a58" fill-opacity="1"><g transform="translate(166.383093, 290.944897)"><g><path d="M 5.796875 -17.203125 L 4.1875 -6.4375 L 4.75 -6.34375 C 4.863281 -6.332031 4.972656 -6.332031 5.078125 -6.34375 C 5.179688 -6.363281 5.304688 -6.425781 5.453125 -6.53125 L 10.984375 -10.421875 C 11.078125 -10.503906 11.175781 -10.5625 11.28125 -10.59375 C 11.382812 -10.632812 11.507812 -10.644531 11.65625 -10.625 L 12.671875 -10.46875 L 6.59375 -6.203125 C 6.414062 -6.046875 6.234375 -5.9375 6.046875 -5.875 C 6.171875 -5.78125 6.273438 -5.6875 6.359375 -5.59375 C 6.441406 -5.5 6.515625 -5.390625 6.578125 -5.265625 L 11.28125 1.6875 L 10.28125 1.53125 C 10.164062 1.507812 10.0625 1.472656 9.96875 1.421875 C 9.875 1.378906 9.800781 1.296875 9.75 1.171875 L 5.484375 -5.03125 C 5.429688 -5.125 5.375 -5.195312 5.3125 -5.25 C 5.257812 -5.3125 5.203125 -5.359375 5.140625 -5.390625 C 5.078125 -5.421875 5.003906 -5.453125 4.921875 -5.484375 C 4.835938 -5.515625 4.734375 -5.539062 4.609375 -5.5625 L 4.0625 -5.640625 L 3.15625 0.46875 L 2 0.296875 L 4.640625 -17.375 Z M 5.796875 -17.203125 "/></g></g></g><g fill="#c99a58" fill-opacity="1"><g transform="translate(178.789007, 292.630344)"><g/></g></g><g fill="#c99a58" fill-opacity="1"><g transform="translate(186.613082, 293.350501)"><g><path d="M 16.421875 -10.125 C 16.535156 -8.78125 16.4375 -7.554688 16.125 -6.453125 C 15.8125 -5.347656 15.328125 -4.390625 14.671875 -3.578125 C 14.015625 -2.773438 13.191406 -2.128906 12.203125 -1.640625 C 11.222656 -1.148438 10.117188 -0.851562 8.890625 -0.75 L 2.546875 -0.21875 L 1.078125 -17.546875 L 7.421875 -18.078125 C 8.648438 -18.179688 9.789062 -18.078125 10.84375 -17.765625 C 11.894531 -17.453125 12.8125 -16.945312 13.59375 -16.25 C 14.382812 -15.5625 15.023438 -14.703125 15.515625 -13.671875 C 16.003906 -12.640625 16.304688 -11.457031 16.421875 -10.125 Z M 15.125 -10.015625 C 15.019531 -11.222656 14.757812 -12.285156 14.34375 -13.203125 C 13.9375 -14.117188 13.394531 -14.878906 12.71875 -15.484375 C 12.050781 -16.085938 11.273438 -16.523438 10.390625 -16.796875 C 9.515625 -17.066406 8.554688 -17.15625 7.515625 -17.0625 L 2.4375 -16.640625 L 3.734375 -1.34375 L 8.8125 -1.765625 C 9.851562 -1.859375 10.785156 -2.113281 11.609375 -2.53125 C 12.429688 -2.945312 13.117188 -3.503906 13.671875 -4.203125 C 14.234375 -4.898438 14.640625 -5.738281 14.890625 -6.71875 C 15.148438 -7.695312 15.226562 -8.796875 15.125 -10.015625 Z M 15.125 -10.015625 "/></g></g></g><g fill="#c99a58" fill-opacity="1"><g transform="translate(206.605155, 291.291032)"><g><path d="M 8.4375 -9.75 C 8.269531 -10.382812 8.03125 -10.929688 7.71875 -11.390625 C 7.414062 -11.847656 7.054688 -12.207031 6.640625 -12.46875 C 6.222656 -12.738281 5.765625 -12.910156 5.265625 -12.984375 C 4.773438 -13.054688 4.257812 -13.023438 3.71875 -12.890625 C 3.101562 -12.722656 2.578125 -12.484375 2.140625 -12.171875 C 1.703125 -11.867188 1.351562 -11.488281 1.09375 -11.03125 C 0.832031 -10.582031 0.660156 -10.082031 0.578125 -9.53125 C 0.492188 -8.976562 0.5 -8.378906 0.59375 -7.734375 Z M 0.71875 -7 L 0.78125 -6.765625 C 1 -5.878906 1.300781 -5.125 1.6875 -4.5 C 2.070312 -3.882812 2.507812 -3.394531 3 -3.03125 C 3.488281 -2.675781 4.035156 -2.453125 4.640625 -2.359375 C 5.242188 -2.265625 5.878906 -2.304688 6.546875 -2.484375 C 7.140625 -2.640625 7.632812 -2.835938 8.03125 -3.078125 C 8.4375 -3.328125 8.765625 -3.570312 9.015625 -3.8125 C 9.273438 -4.050781 9.472656 -4.257812 9.609375 -4.4375 C 9.753906 -4.613281 9.867188 -4.710938 9.953125 -4.734375 C 10.054688 -4.753906 10.148438 -4.726562 10.234375 -4.65625 L 10.625 -4.359375 C 10.5 -4.078125 10.304688 -3.789062 10.046875 -3.5 C 9.785156 -3.207031 9.476562 -2.9375 9.125 -2.6875 C 8.78125 -2.445312 8.398438 -2.226562 7.984375 -2.03125 C 7.566406 -1.832031 7.132812 -1.675781 6.6875 -1.5625 C 5.875 -1.34375 5.097656 -1.289062 4.359375 -1.40625 C 3.628906 -1.53125 2.957031 -1.796875 2.34375 -2.203125 C 1.726562 -2.617188 1.1875 -3.179688 0.71875 -3.890625 C 0.257812 -4.609375 -0.09375 -5.46875 -0.34375 -6.46875 C -0.570312 -7.320312 -0.65625 -8.140625 -0.59375 -8.921875 C -0.53125 -9.703125 -0.335938 -10.410156 -0.015625 -11.046875 C 0.296875 -11.691406 0.75 -12.242188 1.34375 -12.703125 C 1.9375 -13.171875 2.648438 -13.507812 3.484375 -13.71875 C 4.148438 -13.894531 4.796875 -13.941406 5.421875 -13.859375 C 6.054688 -13.773438 6.640625 -13.566406 7.171875 -13.234375 C 7.710938 -12.898438 8.1875 -12.441406 8.59375 -11.859375 C 9 -11.285156 9.304688 -10.582031 9.515625 -9.75 C 9.566406 -9.570312 9.578125 -9.441406 9.546875 -9.359375 C 9.515625 -9.285156 9.441406 -9.238281 9.328125 -9.21875 Z M 0.71875 -7 "/></g></g></g><g fill="#c99a58" fill-opacity="1"><g transform="translate(220.096099, 287.722761)"><g><path d="M 6.34375 -15.78125 L 6.1875 -2.515625 L 5.21875 -2.125 L -4.15625 -11.515625 L -3.3125 -11.859375 C -3.195312 -11.898438 -3.09375 -11.90625 -3 -11.875 C -2.90625 -11.84375 -2.835938 -11.800781 -2.796875 -11.75 L 4.578125 -4.3125 C 4.835938 -4.039062 5.066406 -3.753906 5.265625 -3.453125 C 5.191406 -3.804688 5.148438 -4.171875 5.140625 -4.546875 L 5.28125 -15.03125 C 5.28125 -15.113281 5.296875 -15.191406 5.328125 -15.265625 C 5.367188 -15.347656 5.441406 -15.410156 5.546875 -15.453125 Z M 6.34375 -15.78125 "/></g></g></g><g fill="#c99a58" fill-opacity="1"><g transform="translate(232.550073, 282.602286)"><g><path d="M 5.5625 -11.625 C 5.226562 -12.195312 4.851562 -12.664062 4.4375 -13.03125 C 4.019531 -13.394531 3.578125 -13.644531 3.109375 -13.78125 C 2.640625 -13.925781 2.15625 -13.96875 1.65625 -13.90625 C 1.15625 -13.851562 0.664062 -13.6875 0.1875 -13.40625 C -0.363281 -13.09375 -0.804688 -12.722656 -1.140625 -12.296875 C -1.484375 -11.878906 -1.722656 -11.421875 -1.859375 -10.921875 C -1.992188 -10.429688 -2.023438 -9.90625 -1.953125 -9.34375 C -1.890625 -8.789062 -1.726562 -8.210938 -1.46875 -7.609375 Z M -1.15625 -6.921875 L -1.046875 -6.71875 C -0.585938 -5.925781 -0.09375 -5.28125 0.4375 -4.78125 C 0.96875 -4.289062 1.519531 -3.9375 2.09375 -3.71875 C 2.664062 -3.5 3.25 -3.425781 3.84375 -3.5 C 4.445312 -3.570312 5.046875 -3.78125 5.640625 -4.125 C 6.179688 -4.425781 6.613281 -4.75 6.9375 -5.09375 C 7.257812 -5.4375 7.507812 -5.757812 7.6875 -6.0625 C 7.875 -6.363281 8.015625 -6.613281 8.109375 -6.8125 C 8.203125 -7.007812 8.285156 -7.128906 8.359375 -7.171875 C 8.441406 -7.222656 8.53125 -7.226562 8.625 -7.1875 L 9.09375 -7.015625 C 9.050781 -6.703125 8.941406 -6.367188 8.765625 -6.015625 C 8.585938 -5.671875 8.363281 -5.332031 8.09375 -5 C 7.832031 -4.675781 7.523438 -4.363281 7.171875 -4.0625 C 6.816406 -3.757812 6.441406 -3.492188 6.046875 -3.265625 C 5.316406 -2.847656 4.578125 -2.597656 3.828125 -2.515625 C 3.085938 -2.429688 2.363281 -2.507812 1.65625 -2.75 C 0.957031 -2.988281 0.296875 -3.390625 -0.328125 -3.953125 C -0.960938 -4.523438 -1.535156 -5.257812 -2.046875 -6.15625 C -2.484375 -6.925781 -2.773438 -7.691406 -2.921875 -8.453125 C -3.078125 -9.222656 -3.082031 -9.957031 -2.9375 -10.65625 C -2.800781 -11.351562 -2.507812 -12.003906 -2.0625 -12.609375 C -1.613281 -13.210938 -1.015625 -13.726562 -0.265625 -14.15625 C 0.328125 -14.5 0.9375 -14.710938 1.5625 -14.796875 C 2.195312 -14.890625 2.816406 -14.84375 3.421875 -14.65625 C 4.023438 -14.476562 4.601562 -14.160156 5.15625 -13.703125 C 5.707031 -13.253906 6.195312 -12.65625 6.625 -11.90625 C 6.707031 -11.757812 6.742188 -11.640625 6.734375 -11.546875 C 6.722656 -11.460938 6.664062 -11.394531 6.5625 -11.34375 Z M -1.15625 -6.921875 "/></g></g></g><g fill="#c99a58" fill-opacity="1"><g transform="translate(244.273156, 275.648842)"><g><path d="M -7.625 -16.5 L 2.703125 -1.921875 L 1.734375 -1.234375 L -8.59375 -15.8125 Z M -7.625 -16.5 "/></g></g></g><g fill="#c99a58" fill-opacity="1"><g transform="translate(249.515392, 272.140673)"><g><path d="M -3 -13.875 C -2.34375 -14.445312 -1.65625 -14.847656 -0.9375 -15.078125 C -0.226562 -15.316406 0.484375 -15.382812 1.203125 -15.28125 C 1.929688 -15.175781 2.644531 -14.910156 3.34375 -14.484375 C 4.039062 -14.066406 4.703125 -13.5 5.328125 -12.78125 C 5.960938 -12.0625 6.4375 -11.328125 6.75 -10.578125 C 7.070312 -9.835938 7.234375 -9.101562 7.234375 -8.375 C 7.242188 -7.65625 7.082031 -6.953125 6.75 -6.265625 C 6.425781 -5.585938 5.9375 -4.960938 5.28125 -4.390625 C 4.613281 -3.816406 3.921875 -3.410156 3.203125 -3.171875 C 2.492188 -2.941406 1.773438 -2.875 1.046875 -2.96875 C 0.328125 -3.070312 -0.375 -3.332031 -1.0625 -3.75 C -1.757812 -4.164062 -2.425781 -4.734375 -3.0625 -5.453125 C -3.6875 -6.171875 -4.160156 -6.90625 -4.484375 -7.65625 C -4.804688 -8.40625 -4.96875 -9.144531 -4.96875 -9.875 C -4.976562 -10.601562 -4.816406 -11.304688 -4.484375 -11.984375 C -4.160156 -12.671875 -3.664062 -13.300781 -3 -13.875 Z M 4.671875 -5.09375 C 5.210938 -5.570312 5.601562 -6.082031 5.84375 -6.625 C 6.09375 -7.164062 6.203125 -7.726562 6.171875 -8.3125 C 6.140625 -8.90625 5.972656 -9.507812 5.671875 -10.125 C 5.378906 -10.75 4.960938 -11.367188 4.421875 -11.984375 C 3.890625 -12.597656 3.332031 -13.09375 2.75 -13.46875 C 2.175781 -13.851562 1.597656 -14.097656 1.015625 -14.203125 C 0.441406 -14.316406 -0.128906 -14.289062 -0.703125 -14.125 C -1.285156 -13.96875 -1.847656 -13.648438 -2.390625 -13.171875 C -2.941406 -12.691406 -3.335938 -12.175781 -3.578125 -11.625 C -3.828125 -11.070312 -3.9375 -10.5 -3.90625 -9.90625 C -3.875 -9.320312 -3.707031 -8.71875 -3.40625 -8.09375 C -3.101562 -7.476562 -2.6875 -6.863281 -2.15625 -6.25 C -1.613281 -5.632812 -1.054688 -5.132812 -0.484375 -4.75 C 0.0859375 -4.375 0.660156 -4.128906 1.234375 -4.015625 C 1.816406 -3.910156 2.394531 -3.941406 2.96875 -4.109375 C 3.550781 -4.285156 4.117188 -4.613281 4.671875 -5.09375 Z M 4.671875 -5.09375 "/></g></g></g><g fill="#c99a58" fill-opacity="1"><g transform="translate(260.710973, 262.229446)"><g><path d="M 0.046875 -4.15625 C 0.472656 -4.101562 0.863281 -4.097656 1.21875 -4.140625 C 1.570312 -4.179688 1.898438 -4.257812 2.203125 -4.375 C 2.503906 -4.5 2.78125 -4.660156 3.03125 -4.859375 C 3.289062 -5.066406 3.539062 -5.3125 3.78125 -5.59375 C 4.25 -6.132812 4.554688 -6.691406 4.703125 -7.265625 C 4.859375 -7.847656 4.875 -8.4375 4.75 -9.03125 C 4.625 -9.625 4.367188 -10.203125 3.984375 -10.765625 C 3.597656 -11.335938 3.097656 -11.882812 2.484375 -12.40625 C 1.097656 -13.59375 -0.132812 -14.207031 -1.21875 -14.25 C -2.300781 -14.300781 -3.25 -13.851562 -4.0625 -12.90625 C -4.59375 -12.289062 -4.914062 -11.597656 -5.03125 -10.828125 C -5.144531 -10.054688 -5.085938 -9.234375 -4.859375 -8.359375 Z M -5.578125 -8.90625 C -5.796875 -9.800781 -5.832031 -10.660156 -5.6875 -11.484375 C -5.539062 -12.316406 -5.175781 -13.078125 -4.59375 -13.765625 C -3.613281 -14.898438 -2.453125 -15.445312 -1.109375 -15.40625 C 0.222656 -15.375 1.679688 -14.679688 3.265625 -13.328125 C 3.941406 -12.753906 4.492188 -12.125 4.921875 -11.4375 C 5.359375 -10.757812 5.644531 -10.0625 5.78125 -9.34375 C 5.925781 -8.625 5.90625 -7.90625 5.71875 -7.1875 C 5.539062 -6.476562 5.175781 -5.800781 4.625 -5.15625 C 4.082031 -4.519531 3.5 -4.070312 2.875 -3.8125 C 2.257812 -3.550781 1.578125 -3.441406 0.828125 -3.484375 L 5.359375 0.390625 L 4.59375 1.28125 L -7.984375 -9.484375 L -7.5625 -9.984375 C -7.425781 -10.128906 -7.273438 -10.148438 -7.109375 -10.046875 Z M -5.578125 -8.90625 "/></g></g></g><g fill="#c99a58" fill-opacity="1"><g transform="translate(270.215261, 250.951639)"><g><path d="M -0.5 -12.890625 C -1.050781 -13.234375 -1.59375 -13.46875 -2.125 -13.59375 C -2.664062 -13.71875 -3.175781 -13.734375 -3.65625 -13.640625 C -4.144531 -13.546875 -4.59375 -13.351562 -5 -13.0625 C -5.414062 -12.78125 -5.773438 -12.410156 -6.078125 -11.953125 C -6.410156 -11.410156 -6.628906 -10.875 -6.734375 -10.34375 C -6.847656 -9.820312 -6.847656 -9.304688 -6.734375 -8.796875 C -6.617188 -8.296875 -6.398438 -7.816406 -6.078125 -7.359375 C -5.765625 -6.898438 -5.351562 -6.46875 -4.84375 -6.0625 Z M -4.25 -5.609375 L -4.046875 -5.484375 C -3.273438 -4.984375 -2.539062 -4.632812 -1.84375 -4.4375 C -1.144531 -4.25 -0.492188 -4.191406 0.109375 -4.265625 C 0.722656 -4.335938 1.28125 -4.546875 1.78125 -4.890625 C 2.28125 -5.242188 2.710938 -5.707031 3.078125 -6.28125 C 3.410156 -6.800781 3.640625 -7.285156 3.765625 -7.734375 C 3.898438 -8.191406 3.976562 -8.59375 4 -8.9375 C 4.019531 -9.289062 4.019531 -9.578125 4 -9.796875 C 3.988281 -10.023438 4.003906 -10.175781 4.046875 -10.25 C 4.097656 -10.332031 4.179688 -10.378906 4.296875 -10.390625 L 4.78125 -10.4375 C 4.882812 -10.132812 4.941406 -9.789062 4.953125 -9.40625 C 4.960938 -9.019531 4.921875 -8.617188 4.828125 -8.203125 C 4.742188 -7.796875 4.613281 -7.375 4.4375 -6.9375 C 4.269531 -6.507812 4.0625 -6.101562 3.8125 -5.71875 C 3.363281 -5.007812 2.832031 -4.441406 2.21875 -4.015625 C 1.601562 -3.585938 0.925781 -3.316406 0.1875 -3.203125 C -0.539062 -3.085938 -1.316406 -3.132812 -2.140625 -3.34375 C -2.960938 -3.5625 -3.804688 -3.945312 -4.671875 -4.5 C -5.421875 -4.96875 -6.039062 -5.507812 -6.53125 -6.125 C -7.019531 -6.738281 -7.363281 -7.382812 -7.5625 -8.0625 C -7.757812 -8.75 -7.800781 -9.460938 -7.6875 -10.203125 C -7.570312 -10.941406 -7.28125 -11.675781 -6.8125 -12.40625 C -6.445312 -12.976562 -6.003906 -13.453125 -5.484375 -13.828125 C -4.972656 -14.203125 -4.40625 -14.453125 -3.78125 -14.578125 C -3.164062 -14.703125 -2.507812 -14.691406 -1.8125 -14.546875 C -1.125 -14.398438 -0.414062 -14.09375 0.3125 -13.625 C 0.457031 -13.53125 0.546875 -13.441406 0.578125 -13.359375 C 0.609375 -13.285156 0.59375 -13.195312 0.53125 -13.09375 Z M -4.25 -5.609375 "/></g></g></g><g fill="#c99a58" fill-opacity="1"><g transform="translate(277.476947, 239.239848)"><g><path d="M -6.96875 -6.890625 C -7.332031 -7.273438 -7.640625 -7.660156 -7.890625 -8.046875 C -8.140625 -8.429688 -8.3125 -8.820312 -8.40625 -9.21875 C -8.5 -9.625 -8.53125 -10.03125 -8.5 -10.4375 C -8.46875 -10.851562 -8.347656 -11.273438 -8.140625 -11.703125 C -8.023438 -11.929688 -7.890625 -12.148438 -7.734375 -12.359375 C -7.585938 -12.566406 -7.421875 -12.726562 -7.234375 -12.84375 L -6.546875 -12.390625 C -6.453125 -12.296875 -6.429688 -12.195312 -6.484375 -12.09375 C -6.523438 -12.007812 -6.613281 -11.890625 -6.75 -11.734375 C -6.894531 -11.578125 -7.039062 -11.351562 -7.1875 -11.0625 C -7.394531 -10.632812 -7.507812 -10.222656 -7.53125 -9.828125 C -7.5625 -9.429688 -7.507812 -9.035156 -7.375 -8.640625 C -7.25 -8.253906 -7.046875 -7.875 -6.765625 -7.5 C -6.484375 -7.132812 -6.140625 -6.742188 -5.734375 -6.328125 L 1.390625 -2.859375 L 0.875 -1.8125 L -10.125 -7.171875 L -9.84375 -7.734375 C -9.78125 -7.859375 -9.710938 -7.929688 -9.640625 -7.953125 C -9.566406 -7.984375 -9.460938 -7.972656 -9.328125 -7.921875 Z M -6.96875 -6.890625 "/></g></g></g></svg>