<svg xmlns="http://www.w3.org/2000/svg" xmlns:xlink="http://www.w3.org/1999/xlink" width="500" zoomAndPan="magnify" viewBox="0 0 375 374.999991" height="500" preserveAspectRatio="xMidYMid meet" version="1.0"><defs><g/></defs><rect x="-37.5" width="450" fill="#ffffff" y="-37.499999" height="449.999989" fill-opacity="1"/><rect x="-37.5" width="450" fill="#3b474e" y="-37.499999" height="449.999989" fill-opacity="1"/><g fill="#c99a58" fill-opacity="1"><g transform="translate(26.537112, 219.374986)"><g><path d="M 48.921875 -42.921875 L 18.640625 -31.828125 L 48.921875 -20.828125 L 48.921875 -9.453125 L 5.640625 -25.921875 L 5.640625 -37.734375 L 48.921875 -54.203125 Z M 48.921875 -42.921875 "/></g></g></g><g fill="#c99a58" fill-opacity="1"><g transform="translate(81.008628, 219.374986)"><g/></g></g><g fill="#c99a58" fill-opacity="1"><g transform="translate(106.743917, 219.374986)"><g><path d="M 28.46875 1.09375 C 23.4375 1.09375 18.570312 0.410156 13.875 -0.953125 C 9.175781 -2.316406 5.398438 -4.09375 2.546875 -6.28125 L 7.546875 -17.375 C 10.273438 -15.375 13.519531 -13.765625 17.28125 -12.546875 C 21.039062 -11.335938 24.796875 -10.734375 28.546875 -10.734375 C 32.734375 -10.734375 35.828125 -11.351562 37.828125 -12.59375 C 39.828125 -13.832031 40.828125 -15.484375 40.828125 -17.546875 C 40.828125 -19.066406 40.234375 -20.328125 39.046875 -21.328125 C 37.867188 -22.328125 36.351562 -23.128906 34.5 -23.734375 C 32.65625 -24.335938 30.160156 -25.003906 27.015625 -25.734375 C 22.160156 -26.890625 18.1875 -28.039062 15.09375 -29.1875 C 12 -30.34375 9.34375 -32.191406 7.125 -34.734375 C 4.914062 -37.285156 3.8125 -40.679688 3.8125 -44.921875 C 3.8125 -48.617188 4.8125 -51.96875 6.8125 -54.96875 C 8.820312 -57.96875 11.84375 -60.347656 15.875 -62.109375 C 19.90625 -63.867188 24.828125 -64.75 30.640625 -64.75 C 34.703125 -64.75 38.671875 -64.265625 42.546875 -63.296875 C 46.429688 -62.328125 49.832031 -60.929688 52.75 -59.109375 L 48.203125 -47.921875 C 42.316406 -51.253906 36.4375 -52.921875 30.5625 -52.921875 C 26.4375 -52.921875 23.382812 -52.253906 21.40625 -50.921875 C 19.4375 -49.585938 18.453125 -47.832031 18.453125 -45.65625 C 18.453125 -43.46875 19.585938 -41.84375 21.859375 -40.78125 C 24.140625 -39.71875 27.613281 -38.671875 32.28125 -37.640625 C 37.132812 -36.492188 41.101562 -35.34375 44.1875 -34.1875 C 47.28125 -33.039062 49.929688 -31.222656 52.140625 -28.734375 C 54.359375 -26.253906 55.46875 -22.890625 55.46875 -18.640625 C 55.46875 -15.003906 54.453125 -11.6875 52.421875 -8.6875 C 50.390625 -5.6875 47.34375 -3.304688 43.28125 -1.546875 C 39.21875 0.210938 34.28125 1.09375 28.46875 1.09375 Z M 28.46875 1.09375 "/></g></g></g><g fill="#c99a58" fill-opacity="1"><g transform="translate(164.762003, 219.374986)"><g><path d="M 68.75 -63.65625 L 41.1875 0 L 26.640625 0 L -0.8125 -63.65625 L 15.09375 -63.65625 L 34.46875 -18.1875 L 54.109375 -63.65625 Z M 68.75 -63.65625 "/></g></g></g><g fill="#c99a58" fill-opacity="1"><g transform="translate(232.601339, 219.374986)"><g/></g></g><g fill="#c99a58" fill-opacity="1"><g transform="translate(258.336628, 219.374986)"><g><path d="M 27.015625 -76.5625 L 39.65625 -76.5625 L 9.640625 9.09375 L -3 9.09375 Z M 27.015625 -76.5625 "/></g></g></g><g fill="#c99a58" fill-opacity="1"><g transform="translate(293.984101, 219.374986)"><g><path d="M 48.921875 -37.734375 L 48.921875 -25.921875 L 5.640625 -9.453125 L 5.640625 -20.828125 L 35.921875 -31.828125 L 5.640625 -42.921875 L 5.640625 -54.203125 Z M 48.921875 -37.734375 "/></g></g></g></svg>